<svg width="148" height="147" viewBox="0 0 148 147" fill="#E7F760" xmlns="http://www.w3.org/2000/svg">
<circle cx="73.9995" cy="73.772" r="51.5044" transform="rotate(-43.9363 73.9995 73.772)" stroke="#040315" stroke-width="0.5"/>
<path fill-rule="evenodd" clip-rule="evenodd" d="M75.0079 62.7922L72.0393 58.5427C73.2772 59.7851 74.2552 61.2128 75.0079 62.7922ZM83.7563 70.0306C82.4375 68.5397 81.1824 67.018 79.7149 65.6906C81.4924 66.7439 82.676 68.3528 83.7563 70.0306ZM76.3755 72.1265C75.9407 72.7574 75.5928 72.393 75.2606 72.0771C74.1367 71.0095 74.1774 69.5886 74.2295 68.2304C74.2673 67.2405 74.4314 66.2163 75.0271 65.3546C75.2541 65.0259 75.5244 64.8285 75.781 65.3601C76.4815 66.8117 76.9687 68.3176 76.9336 69.9493C76.917 70.7266 76.7555 71.4776 76.3755 72.1265ZM79.1967 66.4343C80.2505 67.1058 81.0284 68.0792 81.8279 69.0185C85.2821 73.0773 87.2409 77.8369 88.4287 82.9796C89.222 86.4149 89.6799 89.8921 90.016 93.3924C90.0469 93.7117 90.0654 94.0359 90.259 94.3093C90.4765 94.6162 90.6976 94.7381 90.835 94.2555C90.8691 94.1368 90.8002 93.9543 91.0198 94.0269C91.7774 94.277 91.9302 93.7042 92.1122 93.2136C92.454 92.2932 92.3686 91.316 92.3757 90.3669C92.3959 87.708 92.3155 85.0457 91.8864 82.4171C91.488 79.9768 90.7405 77.6216 89.9274 75.2887C89.4098 73.8037 88.8628 72.3004 87.8709 71.0918C87.212 70.2888 86.9058 69.3214 86.2695 68.5288C85.0495 67.0093 83.8181 65.5088 82.2836 64.2872C81.0204 63.2818 79.5936 62.6615 77.9858 62.5045C77.4557 62.4529 77.0905 62.2165 76.8195 61.7874C76.0889 60.6312 75.3189 59.495 74.54 58.3784C73.2732 56.5615 71.7239 54.9539 70.1227 53.4165C67.5689 50.9643 64.804 48.8013 61.5452 47.3415C59.6299 46.4835 57.6858 45.7621 55.5221 46.1406C54.9525 46.2403 54.4439 46.4355 54.1063 46.9445C53.9605 47.1637 53.9131 47.3742 54.0595 47.613C54.2328 47.8951 54.3794 47.7345 54.6081 47.6547C56.1763 47.1072 57.53 47.8499 58.8924 48.4482C62.6471 50.0971 65.6876 52.718 68.5359 55.5929C70.7155 57.793 72.6596 60.1846 74.3214 62.8009C74.4535 63.0086 74.7143 63.1839 74.3107 63.4251C72.9044 64.2653 72.1047 65.5771 71.6806 67.1049C71.0258 69.4632 71.0493 71.7682 72.6642 73.7877C73.5319 74.873 74.5095 75.0342 75.807 74.5593C79.1126 73.3499 80.0246 70.1701 79.2488 67.3289C79.179 67.0745 79.1094 66.8203 79.0399 66.5665C79.0922 66.5223 79.1445 66.4784 79.1967 66.4343Z" fill="#345B48"/>
<path fill-rule="evenodd" clip-rule="evenodd" d="M88.5997 97.6264C89.59 98.9322 90.3825 100.342 90.8844 101.904C90.1228 100.478 89.3615 99.0524 88.5997 97.6264ZM95.0353 94.1389C94.105 95.514 93.4255 97.0238 92.6891 98.5032C92.579 98.7244 92.5669 99.042 92.1935 99.0385C91.8348 99.035 91.7704 98.733 91.6837 98.5106C91.21 97.2987 90.4072 96.2936 89.7246 95.2082C89.2937 94.5224 88.9889 93.7496 88.5246 93.0585C87.8095 91.9947 87.1733 90.8759 86.5325 89.7641C86.2077 89.2007 85.6332 88.8137 85.5136 88.0941C85.396 87.3882 84.8617 87.1969 83.8661 87.528C83.3579 87.6968 82.9191 88.0912 83.1219 88.7373C83.2887 89.2686 83.4995 89.7961 83.7664 90.2839C85.5329 93.5115 87.3254 96.7249 89.0956 99.9505C89.493 100.674 89.842 101.426 90.2043 102.169C90.8629 103.52 91.4302 103.685 92.7775 103.004C93.8233 102.475 94.4507 101.666 94.7892 100.553C95.441 98.4101 96.1539 96.2856 97.2023 94.2948C97.4125 93.8959 97.6785 93.5269 97.9045 93.1356C98.1666 92.6828 98.0443 92.433 97.5021 92.4243C96.3004 92.4044 96.0998 92.5426 95.0353 94.1389Z" fill="#345B48"/>
</svg>
