<svg width="283" height="283" viewBox="0 0 283 283" fill="none" xmlns="http://www.w3.org/2000/svg">
<circle cx="141.397" cy="141.397" r="99.75" transform="rotate(-43.9363 141.397 141.397)" fill="#E7F760" stroke="#040315" stroke-width="0.5"/>
<circle cx="140.999" cy="140.772" r="51.5044" transform="rotate(-43.9363 140.999 140.772)" stroke="#040315" stroke-width="0.5"/>
<path fill-rule="evenodd" clip-rule="evenodd" d="M142.008 129.792L139.039 125.543C140.277 126.785 141.255 128.213 142.008 129.792ZM150.756 137.031C149.438 135.54 148.182 134.018 146.715 132.691C148.492 133.744 149.676 135.353 150.756 137.031ZM143.376 139.127C142.941 139.757 142.593 139.393 142.261 139.077C141.137 138.01 141.177 136.589 141.229 135.23C141.267 134.241 141.431 133.216 142.027 132.355C142.254 132.026 142.524 131.828 142.781 132.36C143.481 133.812 143.969 135.318 143.934 136.949C143.917 137.727 143.755 138.478 143.376 139.127ZM146.197 133.434C147.251 134.106 148.028 135.079 148.828 136.018C152.282 140.077 154.241 144.837 155.429 149.98C156.222 153.415 156.68 156.892 157.016 160.392C157.047 160.712 157.065 161.036 157.259 161.309C157.477 161.616 157.698 161.738 157.835 161.256C157.869 161.137 157.8 160.954 158.02 161.027C158.777 161.277 158.93 160.704 159.112 160.214C159.454 159.293 159.369 158.316 159.376 157.367C159.396 154.708 159.315 152.046 158.886 149.417C158.488 146.977 157.74 144.622 156.927 142.289C156.41 140.804 155.863 139.3 154.871 138.092C154.212 137.289 153.906 136.321 153.269 135.529C152.049 134.009 150.818 132.509 149.284 131.287C148.02 130.282 146.594 129.662 144.986 129.504C144.456 129.453 144.09 129.217 143.819 128.787C143.089 127.631 142.319 126.495 141.54 125.378C140.273 123.561 138.724 121.954 137.123 120.417C134.569 117.964 131.804 115.801 128.545 114.341C126.63 113.484 124.686 112.762 122.522 113.141C121.952 113.24 121.444 113.435 121.106 113.945C120.961 114.164 120.913 114.374 121.059 114.613C121.233 114.895 121.379 114.734 121.608 114.655C123.176 114.107 124.53 114.85 125.892 115.448C129.647 117.097 132.688 119.718 135.536 122.593C137.716 124.793 139.66 127.185 141.321 129.801C141.453 130.009 141.714 130.184 141.311 130.425C139.904 131.265 139.105 132.577 138.681 134.105C138.026 136.463 138.049 138.768 139.664 140.788C140.532 141.873 141.51 142.034 142.807 141.559C146.113 140.35 147.025 137.17 146.249 134.329C146.179 134.075 146.109 133.82 146.04 133.567C146.092 133.522 146.145 133.478 146.197 133.434Z" fill="#345B48"/>
<path fill-rule="evenodd" clip-rule="evenodd" d="M155.6 164.626C156.59 165.932 157.383 167.342 157.884 168.904C157.123 167.478 156.361 166.052 155.6 164.626ZM162.035 161.139C161.105 162.514 160.426 164.024 159.689 165.503C159.579 165.724 159.567 166.042 159.193 166.038C158.835 166.035 158.77 165.733 158.684 165.511C158.21 164.299 157.407 163.294 156.725 162.208C156.294 161.522 155.989 160.75 155.525 160.058C154.809 158.995 154.173 157.876 153.533 156.764C153.208 156.201 152.633 155.814 152.514 155.094C152.396 154.388 151.862 154.197 150.866 154.528C150.358 154.697 149.919 155.091 150.122 155.737C150.289 156.269 150.5 156.796 150.766 157.284C152.533 160.512 154.325 163.725 156.096 166.95C156.493 167.674 156.842 168.426 157.204 169.169C157.863 170.52 158.43 170.685 159.777 170.004C160.823 169.475 161.451 168.666 161.789 167.553C162.441 165.41 163.154 163.286 164.202 161.295C164.412 160.896 164.678 160.527 164.905 160.136C165.167 159.683 165.044 159.433 164.502 159.424C163.3 159.404 163.1 159.543 162.035 161.139Z" fill="#345B48"/>
<path d="M195.041 101.356L198.418 107.851L199.748 107.16L196.619 101.142L207.308 95.5851L206.501 94.0338L195.557 99.7241C194.858 100.087 194.686 100.675 195.041 101.356Z" fill="#345B48"/>
<path d="M200.081 108.499L203.028 117.441L204.451 116.972L202.052 109.691L206.377 108.266L208.475 114.635L209.862 114.178L207.764 107.809L212.07 106.39L214.469 113.671L215.893 113.202L212.947 104.26L200.081 108.499Z" fill="#345B48"/>
<path d="M204.646 117.062L204.894 118.851L210.276 119.889L210.994 125.065L206.096 127.511L206.347 129.319L219.13 122.888L218.7 119.786L204.646 117.062ZM211.829 120.178L218.266 121.418L212.407 124.346L211.829 120.178Z" fill="#345B48"/>
<path d="M207.895 129.707L207.824 131.454L213.181 131.67L212.905 138.505L207.548 138.288L207.479 140.016L212.47 140.218C213.257 140.249 213.903 139.968 213.947 138.893L213.987 137.895C214.293 139.349 215.274 140.312 217.309 140.394C220.304 140.515 221.099 138.432 221.227 135.264L221.43 130.253L207.895 129.707ZM214.678 131.731L219.862 131.94L219.73 135.204C219.641 137.392 219.394 138.747 216.995 138.651C214.652 138.556 214.458 137.183 214.546 134.994L214.678 131.731Z" fill="#345B48"/>
<path d="M209.277 141.652L208.859 143.35L221.417 146.436L207.213 150.048L206.443 153.183L219.597 156.416L220.01 154.736L207.453 151.651L221.661 148.019L222.431 144.885L209.277 141.652Z" fill="#345B48"/>
<path d="M207.328 160.183L206.413 161.673L217.35 168.39L204.221 165.242L202.753 167.633L211.509 177.902L200.572 171.186L199.657 172.676L211.2 179.764L212.869 177.046L204.018 166.786L217.172 170.039L218.871 167.272L207.328 160.183Z" fill="#345B48"/>
<path d="M205.577 179.32C202.667 176.609 198.836 176.296 196.099 179.235C193.362 182.173 193.958 185.958 196.868 188.669C199.765 191.367 203.583 191.694 206.32 188.755C209.057 185.817 208.473 182.018 205.577 179.32ZM204.372 180.613C206.692 182.774 207.331 185.443 205.209 187.721C203.088 189.998 200.38 189.551 198.06 187.39C195.726 185.216 195.088 182.547 197.209 180.269C199.331 177.992 202.039 178.439 204.372 180.613Z" fill="#345B48"/>
<path d="M191.844 186.293L190.437 187.332L193.621 191.645L188.117 195.707L184.934 191.394L183.543 192.42L186.509 196.44C186.977 197.074 187.601 197.401 188.467 196.762L189.27 196.169C188.328 197.318 188.19 198.685 189.4 200.324C191.18 202.736 193.303 202.052 195.853 200.17L199.888 197.192L191.844 186.293ZM194.511 192.85L197.591 197.024L194.963 198.964C193.201 200.265 191.989 200.92 190.563 198.988C189.171 197.102 190.12 196.091 191.883 194.79L194.511 192.85Z" fill="#345B48"/>
<path d="M182.493 194.623L174.124 198.935L174.81 200.267L181.625 196.756L183.71 200.804L177.749 203.875L178.418 205.173L184.379 202.102L186.456 206.134L179.641 209.644L180.327 210.977L188.696 206.665L182.493 194.623Z" fill="#345B48"/>
<path d="M171.136 213.39L168.819 213.26L168.015 213.45L168.553 212.773L169.383 210.63L168.209 210.162L167.36 212.31L167.285 213.164L166.802 212.456L165.025 210.974L164.197 211.984L165.987 213.443L166.759 213.738L165.951 213.989L163.993 215.235L164.67 216.309L166.634 215.081L167.177 214.423L167.148 215.304L167.731 217.535L168.976 217.21L168.394 214.979L167.944 214.243L168.758 214.547L171.08 214.695L171.136 213.39Z" fill="#345B48"/>
<path d="M153.11 207.389L145.792 207.572L145.829 209.07L152.609 208.9L152.911 220.943L154.659 220.9L154.35 208.568C154.33 207.781 153.878 207.369 153.11 207.389Z" fill="#345B48"/>
<path d="M144.496 208.752L135.166 207.485L134.965 208.97L142.561 210.002L141.949 214.514L135.304 213.612L135.108 215.059L141.752 215.961L141.142 220.454L133.546 219.423L133.344 220.908L142.673 222.174L144.496 208.752Z" fill="#345B48"/>
<path d="M134.85 209.099L133.132 208.54L129.846 212.926L124.876 211.309L124.819 205.835L123.083 205.27L123.276 219.578L126.254 220.547L134.85 209.099ZM128.907 214.197L124.976 219.444L124.906 212.894L128.907 214.197Z" fill="#345B48"/>
<path d="M122.066 206.487L120.526 205.658L117.985 210.378L111.962 207.135L114.504 202.415L112.981 201.596L110.613 205.994C110.239 206.688 110.209 207.392 111.157 207.902L112.037 208.375C110.595 208.014 109.3 208.473 108.334 210.266C106.913 212.905 108.437 214.533 111.229 216.036L115.644 218.414L122.066 206.487ZM117.274 211.698L114.815 216.265L111.939 214.717C110.01 213.678 108.9 212.862 110.039 210.748C111.15 208.684 112.47 209.111 114.398 210.149L117.274 211.698Z" fill="#345B48"/>
<path d="M110.866 202.58L109.524 201.459L101.233 211.382L104.231 197.036L101.754 194.967L93.0686 205.362L94.3956 206.471L102.686 196.547L99.7037 210.905L102.181 212.975L110.866 202.58Z" fill="#345B48"/>
<path d="M94.8378 192.452L93.9045 190.973L83.0512 197.824L91.6686 187.431L90.1712 185.059L77.0923 188.384L87.9456 181.533L87.0123 180.055L75.5579 187.285L77.2604 189.982L90.3735 186.567L81.6501 196.936L83.3834 199.682L94.8378 192.452Z" fill="#345B48"/>
<path d="M78.4525 182.558C82.1706 181.146 84.1448 177.848 82.719 174.094C81.2933 170.34 77.6342 169.202 73.9161 170.614C70.2159 172.019 68.2349 175.299 69.6606 179.053C71.0864 182.807 74.7523 183.964 78.4525 182.558ZM77.8249 180.906C74.8611 182.031 72.1847 181.424 71.0796 178.514C69.9745 175.605 71.5731 173.374 74.5369 172.248C77.5185 171.116 80.1949 171.723 81.3 174.633C82.4051 177.543 80.8066 179.773 77.8249 180.906Z" fill="#345B48"/>
<path d="M78.3858 167.486L78.0696 165.766L72.7973 166.736L71.5604 160.008L76.8326 159.039L76.5199 157.338L71.6067 158.242C70.8319 158.384 70.2639 158.801 70.4585 159.859L70.6392 160.842C70.0196 159.491 68.8512 158.768 66.8481 159.136C63.9002 159.678 63.5832 161.885 64.1565 165.003L65.0634 169.935L78.3858 167.486ZM71.3234 167.007L66.2212 167.945L65.6305 164.732C65.2344 162.578 65.1767 161.202 67.5388 160.767C69.8442 160.343 70.3366 161.64 70.7327 163.794L71.3234 167.007Z" fill="#345B48"/>
<path d="M74.9832 155.362L74.7816 145.95L73.2833 145.982L73.4474 153.646L68.8948 153.744L68.7513 147.04L67.2913 147.071L67.4349 153.775L62.9015 153.872L62.7374 146.207L61.239 146.239L61.4406 155.652L74.9832 155.362Z" fill="#345B48"/>
<path d="M63.0681 136.966L64.1978 134.938L64.3783 134.131L64.7517 134.911L66.3161 136.595L67.2503 135.743L65.6896 134.041L64.9546 133.6L65.8024 133.475L67.9122 132.525L67.3653 131.338L65.2706 132.311L64.668 132.877L64.7957 132.04L64.5311 129.734L63.2688 129.874L63.5146 132.176L63.8691 132.952L63.089 132.542L60.8279 132.091L60.576 133.353L62.837 133.804L63.6961 133.721L63.0671 134.32L61.9186 136.344L63.0681 136.966Z" fill="#345B48"/>
<path d="M76.2442 123.517L79.2709 116.852L77.9063 116.232L75.102 122.408L64.133 117.427L63.4101 119.019L74.6415 124.119C75.3588 124.444 75.9264 124.217 76.2442 123.517Z" fill="#345B48"/>
<path d="M78.7872 115.067L84.0155 107.237L82.7692 106.405L78.5118 112.781L74.7248 110.252L78.4487 104.675L77.2343 103.864L73.5105 109.441L69.7395 106.923L73.9969 100.547L72.7505 99.715L67.5222 107.545L78.7872 115.067Z" fill="#345B48"/>
<path d="M82.7549 106.162L84.0112 104.864L81.5136 99.9858L85.1488 96.2311L90.0921 98.5834L91.3618 97.272L78.4224 91.1629L76.2439 93.4129L82.7549 106.162ZM80.7844 98.5845L77.7958 92.7492L83.7113 95.5614L80.7844 98.5845Z" fill="#345B48"/>
<path d="M90.814 95.6757L92.2366 94.6591L89.1197 90.2977L94.6848 86.3207L97.8017 90.6821L99.2086 89.6767L96.304 85.6123C95.846 84.9714 95.2272 84.6342 94.3518 85.2598L93.5389 85.8408C94.4991 84.7059 94.6573 83.3412 93.4732 81.6841C91.7304 79.2455 89.5975 79.896 87.0182 81.7392L82.9382 84.655L90.814 95.6757ZM88.2484 89.0784L85.2321 84.8577L87.8896 82.9586C89.6717 81.685 90.8933 81.0482 92.2897 83.0022C93.6526 84.9093 92.6879 85.9057 90.9059 87.1793L88.2484 89.0784Z" fill="#345B48"/>
<path d="M99.2553 87.3024L100.852 86.5908L95.59 74.7792L107.153 83.7837L110.102 82.47L104.589 70.0968L103.009 70.8005L108.272 82.6121L96.6911 73.6155L93.7426 74.9292L99.2553 87.3024Z" fill="#345B48"/>
<path d="M115.069 77.4354L116.807 77.2456L115.414 64.4867L120.97 76.791L123.759 76.4866L126.511 63.2751L127.904 76.034L129.642 75.8443L128.172 62.3786L125.001 62.7248L122.315 76.0064L116.826 63.6173L113.598 63.9697L115.069 77.4354Z" fill="#345B48"/>
<path d="M131.441 67.0317C131.079 70.9924 133.176 74.2135 137.175 74.5794C141.174 74.9454 143.803 72.1568 144.165 68.1961C144.526 64.2545 142.447 61.0351 138.448 60.6692C134.449 60.3032 131.802 63.0901 131.441 67.0317ZM133.201 67.1928C133.49 64.0357 135.21 61.8971 138.31 62.1807C141.41 62.4644 142.713 64.8796 142.424 68.0367C142.133 71.2129 140.413 73.3515 137.314 73.0679C134.214 72.7842 132.911 70.369 133.201 67.1928Z" fill="#345B48"/>
<path d="M144.98 73.5771L146.665 74.0442L148.097 68.8783L154.688 70.7052L153.257 75.8711L154.923 76.333L156.257 71.5189C156.468 70.7598 156.341 70.0666 155.304 69.7792L154.341 69.5124C155.827 69.5455 156.988 68.8105 157.532 66.8478C158.333 63.9593 156.486 62.7098 153.431 61.863L148.598 60.5236L144.98 73.5771ZM148.497 67.434L149.883 62.4348L153.03 63.3072C155.141 63.8923 156.404 64.4418 155.763 66.7562C155.137 69.0152 153.755 68.8915 151.645 68.3065L148.497 67.434Z" fill="#345B48"/>
<path d="M157.163 75.7269L165.721 79.6516L166.346 78.2894L159.377 75.0935L161.276 70.9544L167.371 73.7497L167.98 72.4224L161.884 69.6271L163.775 65.5054L170.743 68.7013L171.368 67.339L162.81 63.4143L157.163 75.7269Z" fill="#345B48"/>
<path d="M173.215 70.1158L174.692 71.9062L175.377 72.3681L174.515 72.4318L172.377 73.2757L172.83 74.4559L174.984 73.6224L175.662 73.0984L175.47 73.9333L175.587 76.2443L176.891 76.1672L176.748 73.862L176.44 73.0948L177.173 73.5184L179.417 74.1117L179.746 72.8851L177.513 72.2757L176.661 72.3233L177.327 71.7461L178.571 69.8046L177.487 69.1103L176.243 71.0517L176.008 71.8822L175.679 71.078L174.212 69.2714L173.215 70.1158Z" fill="#345B48"/>
</svg>
