<svg width="283" height="283" viewBox="0 0 283 283" fill="none" xmlns="http://www.w3.org/2000/svg">
<circle cx="141.397" cy="141.397" r="99.75" transform="rotate(-43.9363 141.397 141.397)" fill="#E7F760" stroke="#040315" stroke-width="0.5"/>
<path d="M195.041 101.356L198.418 107.851L199.748 107.16L196.619 101.142L207.308 95.585L206.501 94.0337L195.557 99.7239C194.858 100.087 194.686 100.674 195.041 101.356Z" fill="#345B48"/>
<path d="M200.081 108.499L203.028 117.441L204.451 116.972L202.052 109.691L206.377 108.266L208.475 114.634L209.862 114.178L207.764 107.809L212.07 106.39L214.469 113.671L215.893 113.202L212.947 104.26L200.081 108.499Z" fill="#345B48"/>
<path d="M204.646 117.062L204.894 118.851L210.276 119.889L210.994 125.065L206.096 127.51L206.347 129.318L219.13 122.888L218.7 119.786L204.646 117.062ZM211.829 120.178L218.266 121.418L212.407 124.345L211.829 120.178Z" fill="#345B48"/>
<path d="M207.895 129.707L207.824 131.454L213.181 131.67L212.905 138.504L207.548 138.288L207.479 140.016L212.47 140.218C213.257 140.249 213.903 139.968 213.947 138.893L213.987 137.894C214.293 139.349 215.274 140.312 217.309 140.394C220.304 140.515 221.099 138.432 221.227 135.264L221.43 130.253L207.895 129.707ZM214.678 131.73L219.862 131.94L219.73 135.203C219.641 137.392 219.394 138.747 216.995 138.65C214.652 138.556 214.458 137.183 214.546 134.994L214.678 131.73Z" fill="#345B48"/>
<path d="M209.277 141.652L208.859 143.35L221.417 146.436L207.213 150.048L206.443 153.183L219.597 156.416L220.01 154.736L207.453 151.65L221.661 148.019L222.431 144.885L209.277 141.652Z" fill="#345B48"/>
<path d="M207.328 160.183L206.413 161.673L217.35 168.389L204.221 165.242L202.753 167.633L211.509 177.902L200.572 171.186L199.657 172.676L211.2 179.764L212.869 177.046L204.018 166.786L217.172 170.039L218.871 167.271L207.328 160.183Z" fill="#345B48"/>
<path d="M205.577 179.32C202.667 176.609 198.836 176.296 196.099 179.235C193.362 182.173 193.958 185.958 196.868 188.669C199.765 191.367 203.583 191.694 206.32 188.755C209.057 185.817 208.473 182.018 205.577 179.32ZM204.372 180.613C206.692 182.774 207.331 185.443 205.209 187.721C203.088 189.998 200.38 189.551 198.06 187.39C195.726 185.216 195.088 182.547 197.209 180.269C199.331 177.992 202.039 178.439 204.372 180.613Z" fill="#345B48"/>
<path d="M191.844 186.293L190.437 187.331L193.621 191.644L188.117 195.706L184.934 191.393L183.543 192.42L186.509 196.44C186.977 197.073 187.601 197.401 188.467 196.762L189.27 196.169C188.328 197.318 188.19 198.685 189.4 200.324C191.18 202.735 193.303 202.052 195.853 200.17L199.888 197.192L191.844 186.293ZM194.511 192.85L197.591 197.024L194.963 198.964C193.201 200.265 191.989 200.92 190.563 198.988C189.171 197.102 190.12 196.091 191.883 194.79L194.511 192.85Z" fill="#345B48"/>
<path d="M182.493 194.623L174.124 198.935L174.81 200.267L181.625 196.756L183.71 200.804L177.749 203.875L178.418 205.173L184.379 202.102L186.456 206.133L179.641 209.644L180.327 210.976L188.696 206.665L182.493 194.623Z" fill="#345B48"/>
<path d="M171.136 213.389L168.819 213.26L168.015 213.45L168.553 212.773L169.383 210.63L168.209 210.162L167.36 212.31L167.285 213.164L166.802 212.456L165.025 210.974L164.197 211.984L165.987 213.443L166.759 213.738L165.951 213.988L163.993 215.234L164.67 216.309L166.634 215.081L167.177 214.423L167.148 215.304L167.731 217.535L168.976 217.21L168.394 214.979L167.944 214.243L168.758 214.547L171.08 214.695L171.136 213.389Z" fill="#345B48"/>
<path d="M153.11 207.388L145.792 207.572L145.829 209.07L152.609 208.9L152.911 220.943L154.659 220.9L154.35 208.568C154.33 207.781 153.878 207.369 153.11 207.388Z" fill="#345B48"/>
<path d="M144.496 208.752L135.166 207.485L134.965 208.97L142.561 210.001L141.949 214.514L135.304 213.612L135.108 215.059L141.752 215.961L141.142 220.454L133.546 219.423L133.344 220.908L142.673 222.174L144.496 208.752Z" fill="#345B48"/>
<path d="M134.85 209.099L133.132 208.54L129.846 212.926L124.876 211.309L124.819 205.835L123.083 205.27L123.276 219.577L126.254 220.547L134.85 209.099ZM128.907 214.197L124.976 219.444L124.906 212.894L128.907 214.197Z" fill="#345B48"/>
<path d="M122.066 206.487L120.526 205.658L117.985 210.378L111.962 207.135L114.504 202.415L112.981 201.595L110.613 205.994C110.239 206.688 110.209 207.392 111.157 207.902L112.037 208.375C110.595 208.014 109.3 208.473 108.334 210.266C106.913 212.905 108.437 214.533 111.229 216.036L115.644 218.414L122.066 206.487ZM117.274 211.697L114.815 216.265L111.939 214.717C110.01 213.678 108.9 212.862 110.039 210.748C111.15 208.684 112.47 209.111 114.398 210.149L117.274 211.697Z" fill="#345B48"/>
<path d="M110.866 202.58L109.524 201.459L101.233 211.382L104.231 197.036L101.754 194.967L93.0686 205.362L94.3956 206.47L102.686 196.547L99.7037 210.905L102.181 212.975L110.866 202.58Z" fill="#345B48"/>
<path d="M94.8378 192.451L93.9045 190.973L83.0512 197.824L91.6686 187.431L90.1712 185.059L77.0923 188.384L87.9456 181.533L87.0123 180.055L75.5579 187.285L77.2604 189.982L90.3735 186.567L81.6501 196.936L83.3834 199.682L94.8378 192.451Z" fill="#345B48"/>
<path d="M78.4525 182.558C82.1706 181.146 84.1448 177.848 82.719 174.094C81.2933 170.34 77.6342 169.202 73.9161 170.614C70.2159 172.019 68.2349 175.299 69.6606 179.053C71.0864 182.807 74.7523 183.964 78.4525 182.558ZM77.8249 180.906C74.8611 182.031 72.1847 181.424 71.0796 178.514C69.9745 175.605 71.5731 173.374 74.5369 172.248C77.5185 171.116 80.1949 171.723 81.3 174.633C82.4051 177.543 80.8066 179.773 77.8249 180.906Z" fill="#345B48"/>
<path d="M78.3858 167.486L78.0696 165.766L72.7973 166.736L71.5604 160.008L76.8326 159.039L76.5199 157.338L71.6067 158.241C70.8319 158.384 70.2639 158.801 70.4585 159.859L70.6392 160.842C70.0196 159.491 68.8512 158.768 66.8481 159.136C63.9002 159.678 63.5832 161.885 64.1565 165.003L65.0634 169.935L78.3858 167.486ZM71.3234 167.007L66.2212 167.945L65.6305 164.732C65.2344 162.578 65.1767 161.201 67.5388 160.767C69.8442 160.343 70.3366 161.64 70.7327 163.794L71.3234 167.007Z" fill="#345B48"/>
<path d="M74.9832 155.362L74.7816 145.949L73.2833 145.982L73.4474 153.646L68.8948 153.744L68.7513 147.039L67.2913 147.071L67.4349 153.775L62.9015 153.872L62.7374 146.207L61.239 146.239L61.4406 155.652L74.9832 155.362Z" fill="#345B48"/>
<path d="M63.0681 136.966L64.1978 134.938L64.3783 134.131L64.7517 134.911L66.3161 136.595L67.2503 135.743L65.6896 134.04L64.9546 133.6L65.8024 133.475L67.9122 132.525L67.3653 131.338L65.2706 132.311L64.668 132.876L64.7957 132.04L64.5311 129.734L63.2688 129.874L63.5146 132.176L63.8691 132.952L63.089 132.542L60.8279 132.09L60.576 133.353L62.837 133.804L63.6961 133.721L63.0671 134.32L61.9186 136.344L63.0681 136.966Z" fill="#345B48"/>
<path d="M76.2442 123.517L79.2709 116.851L77.9063 116.232L75.102 122.407L64.133 117.426L63.4101 119.018L74.6415 124.119C75.3588 124.444 75.9264 124.217 76.2442 123.517Z" fill="#345B48"/>
<path d="M78.7872 115.067L84.0155 107.237L82.7692 106.405L78.5118 112.781L74.7248 110.252L78.4487 104.675L77.2343 103.864L73.5105 109.441L69.7395 106.923L73.9969 100.547L72.7505 99.7149L67.5222 107.544L78.7872 115.067Z" fill="#345B48"/>
<path d="M82.7549 106.162L84.0112 104.864L81.5136 99.9857L85.1488 96.231L90.0921 98.5833L91.3618 97.2719L78.4224 91.1627L76.2439 93.4128L82.7549 106.162ZM80.7844 98.5843L77.7958 92.7491L83.7113 95.5612L80.7844 98.5843Z" fill="#345B48"/>
<path d="M90.814 95.6756L92.2366 94.659L89.1197 90.2976L94.6848 86.3206L97.8017 90.682L99.2086 89.6766L96.304 85.6122C95.846 84.9712 95.2272 84.6341 94.3518 85.2597L93.5389 85.8406C94.4991 84.7058 94.6573 83.341 93.4732 81.684C91.7304 79.2454 89.5975 79.8958 87.0182 81.7391L82.9382 84.6549L90.814 95.6756ZM88.2484 89.0783L85.2321 84.8576L87.8896 82.9584C89.6717 81.6849 90.8933 81.048 92.2897 83.0021C93.6526 84.9092 92.6879 85.9056 90.9059 87.1792L88.2484 89.0783Z" fill="#345B48"/>
<path d="M99.2553 87.3023L100.852 86.5907L95.59 74.7791L107.153 83.7835L110.102 82.4699L104.589 70.0967L103.009 70.8004L108.272 82.612L96.6911 73.6154L93.7426 74.9291L99.2553 87.3023Z" fill="#345B48"/>
<path d="M115.069 77.4353L116.807 77.2455L115.414 64.4865L120.97 76.7909L123.759 76.4864L126.511 63.2749L127.904 76.0339L129.642 75.8442L128.172 62.3785L125.001 62.7246L122.315 76.0063L116.826 63.6172L113.598 63.9696L115.069 77.4353Z" fill="#345B48"/>
<path d="M131.441 67.0315C131.079 70.9922 133.176 74.2134 137.175 74.5793C141.174 74.9453 143.803 72.1566 144.165 68.1959C144.526 64.2544 142.447 61.035 138.448 60.669C134.449 60.3031 131.802 63.09 131.441 67.0315ZM133.201 67.1926C133.49 64.0356 135.21 61.897 138.31 62.1806C141.41 62.4643 142.713 64.8795 142.424 68.0366C142.133 71.2128 140.413 73.3514 137.314 73.0677C134.214 72.7841 132.911 70.3688 133.201 67.1926Z" fill="#345B48"/>
<path d="M144.98 73.577L146.665 74.044L148.097 68.8781L154.688 70.7051L153.257 75.871L154.923 76.3329L156.257 71.5188C156.468 70.7596 156.341 70.0665 155.304 69.7791L154.341 69.5123C155.827 69.5454 156.988 68.8103 157.532 66.8477C158.333 63.9592 156.486 62.7096 153.431 61.8629L148.598 60.5234L144.98 73.577ZM148.497 67.4339L149.883 62.4347L153.03 63.3071C155.141 63.8921 156.404 64.4417 155.763 66.7561C155.137 69.015 153.755 68.8914 151.645 68.3063L148.497 67.4339Z" fill="#345B48"/>
<path d="M157.163 75.7268L165.721 79.6515L166.346 78.2892L159.377 75.0934L161.276 70.9543L167.371 73.7496L167.98 72.4223L161.884 69.6269L163.775 65.5053L170.743 68.7011L171.368 67.3389L162.81 63.4142L157.163 75.7268Z" fill="#345B48"/>
<path d="M173.215 70.1156L174.692 71.9061L175.377 72.3679L174.515 72.4317L172.377 73.2756L172.83 74.4558L174.984 73.6223L175.662 73.0982L175.47 73.9332L175.587 76.2442L176.891 76.1671L176.748 73.8619L176.44 73.0947L177.173 73.5183L179.417 74.1115L179.746 72.885L177.513 72.2756L176.661 72.3231L177.327 71.746L178.571 69.8045L177.487 69.1101L176.243 71.0516L176.008 71.882L175.679 71.0779L174.212 69.2713L173.215 70.1156Z" fill="#345B48"/>
</svg>
